<svg xmlns="http://www.w3.org/2000/svg" viewBox="0 0 320 200" width="320" height="200" role="img" aria-label="Colorization SOTA fine-tuning">
  <defs>
    <linearGradient id="dl-bg" x1="0" y1="0" x2="1" y2="1">
      <stop offset="0" stop-color="#dbeafe"/>
      <stop offset="1" stop-color="#bfdbfe"/>
    </linearGradient>
    <linearGradient id="dl-rainbow" x1="0" y1="0" x2="1" y2="0">
      <stop offset="0" stop-color="#ef4444"/>
      <stop offset="0.25" stop-color="#f59e0b"/>
      <stop offset="0.5" stop-color="#22c55e"/>
      <stop offset="0.75" stop-color="#3b82f6"/>
      <stop offset="1" stop-color="#a855f7"/>
    </linearGradient>
  </defs>
  <rect width="320" height="200" rx="14" fill="url(#dl-bg)"/>
  <g transform="translate(40 50)">
    <rect x="0" y="0" width="100" height="100" rx="8" fill="#52525b"/>
    <circle cx="32" cy="32" r="14" fill="#a1a1aa"/>
    <path d="M0 100 L40 60 L70 80 L100 50 L100 100 Z" fill="#71717a"/>
  </g>
  <g transform="translate(180 50)">
    <rect x="0" y="0" width="100" height="100" rx="8" fill="#fde68a"/>
    <circle cx="32" cy="32" r="14" fill="#fbbf24"/>
    <path d="M0 100 L40 60 L70 80 L100 50 L100 100 Z" fill="#22c55e"/>
    <rect x="0" y="80" width="100" height="20" fill="#3b82f6" opacity="0.7"/>
  </g>
  <g transform="translate(146 100)" stroke="#1e3a8a" stroke-width="3" stroke-linecap="round" fill="none">
    <line x1="0" y1="0" x2="28" y2="0"/>
    <path d="M22 -6 L30 0 L22 6"/>
  </g>
  <rect x="40" y="160" width="240" height="6" rx="3" fill="url(#dl-rainbow)" opacity="0.7"/>
</svg>
