<svg xmlns="http://www.w3.org/2000/svg" viewBox="0 0 320 200" width="320" height="200" role="img" aria-label="운수종사자 교통사고 위험 예측">
  <defs>
    <linearGradient id="dr-bg" x1="0" y1="0" x2="0" y2="1">
      <stop offset="0" stop-color="#ffe4e6"/>
      <stop offset="1" stop-color="#ffedd5"/>
    </linearGradient>
    <linearGradient id="dr-road" x1="0" y1="0" x2="1" y2="0">
      <stop offset="0" stop-color="#1f2937"/>
      <stop offset="1" stop-color="#475569"/>
    </linearGradient>
  </defs>
  <rect width="320" height="200" rx="14" fill="url(#dr-bg)"/>
  <path d="M-10 150 Q60 110 160 130 T330 110 L330 200 L-10 200 Z" fill="url(#dr-road)"/>
  <g stroke="#fde68a" stroke-width="3" stroke-dasharray="14 12" fill="none">
    <path d="M-10 170 Q60 134 160 152 T330 130"/>
  </g>
  <g transform="translate(108 90)">
    <rect x="0" y="20" width="100" height="32" rx="6" fill="#f43f5e"/>
    <path d="M14 20 L26 4 L74 4 L86 20 Z" fill="#fb7185"/>
    <rect x="32" y="8" width="36" height="14" rx="2" fill="#fff" opacity="0.85"/>
    <circle cx="22" cy="56" r="9" fill="#1f2937"/>
    <circle cx="22" cy="56" r="4" fill="#9ca3af"/>
    <circle cx="78" cy="56" r="9" fill="#1f2937"/>
    <circle cx="78" cy="56" r="4" fill="#9ca3af"/>
  </g>
  <g transform="translate(232 36)">
    <path d="M14 0 L28 24 L0 24 Z" fill="#fff" stroke="#f43f5e" stroke-width="2"/>
    <text x="11" y="20" font-family="ui-monospace, monospace" font-size="14" font-weight="700" fill="#f43f5e">!</text>
  </g>
  <g transform="translate(40 30)" stroke="#f43f5e" stroke-width="2" fill="none" opacity="0.7">
    <path d="M0 24 L8 20 L16 26 L24 14 L32 22 L40 10"/>
  </g>
</svg>
