<svg xmlns="http://www.w3.org/2000/svg" viewBox="0 0 320 200" width="320" height="200" role="img" aria-label="운수종사자 인지 위험 예측">
  <defs>
    <linearGradient id="dc-bg" x1="0" y1="0" x2="1" y2="1">
      <stop offset="0" stop-color="#fff7ed"/>
      <stop offset="1" stop-color="#ffedd5"/>
    </linearGradient>
  </defs>
  <rect width="320" height="200" rx="14" fill="url(#dc-bg)"/>
  <g transform="translate(80 60)">
    <circle cx="40" cy="40" r="40" fill="#ffffff" stroke="#ea580c" stroke-width="3"/>
    <path d="M40 8 A32 32 0 0 1 67.7 56 L40 40 Z" fill="#fb923c"/>
    <path d="M67.7 56 A32 32 0 0 1 22.6 65.5 L40 40 Z" fill="#f97316"/>
    <circle cx="40" cy="40" r="10" fill="#ffffff" stroke="#ea580c" stroke-width="2"/>
    <text x="40" y="44" font-family="ui-monospace, monospace" font-size="10" text-anchor="middle" fill="#9a3412">7.8%</text>
  </g>
  <g transform="translate(190 60)" stroke="#ea580c" stroke-width="2.5" fill="none">
    <path d="M0 50 L10 50 L14 30 L22 70 L30 20 L38 60 L46 50 L60 50"/>
  </g>
  <text x="40" y="172" font-family="ui-monospace, monospace" font-size="11" fill="#9a3412" opacity="0.7">Top 7.8% · 437팀</text>
</svg>
