<svg xmlns="http://www.w3.org/2000/svg" viewBox="0 0 320 200" width="320" height="200" role="img" aria-label="유전체 정보 품종 분류">
  <defs>
    <linearGradient id="ge-bg" x1="0" y1="0" x2="1" y2="1">
      <stop offset="0" stop-color="#fce7f3"/>
      <stop offset="1" stop-color="#fbcfe8"/>
    </linearGradient>
  </defs>
  <rect width="320" height="200" rx="14" fill="url(#ge-bg)"/>
  <g transform="translate(120 30)" stroke="#be185d" stroke-width="2.5" fill="none">
    <path d="M0 10 Q40 50 0 90 Q40 130 0 170"/>
    <path d="M80 10 Q40 50 80 90 Q40 130 80 170"/>
    <line x1="6" y1="22" x2="74" y2="22"/>
    <line x1="14" y1="40" x2="66" y2="40"/>
    <line x1="20" y1="58" x2="60" y2="58"/>
    <line x1="20" y1="80" x2="60" y2="80"/>
    <line x1="14" y1="100" x2="66" y2="100"/>
    <line x1="6" y1="120" x2="74" y2="120"/>
    <line x1="14" y1="140" x2="66" y2="140"/>
    <line x1="20" y1="158" x2="60" y2="158"/>
  </g>
  <g fill="#ec4899">
    <circle cx="126" cy="52" r="3"/><circle cx="194" cy="52" r="3"/>
    <circle cx="134" cy="70" r="3"/><circle cx="186" cy="70" r="3"/>
    <circle cx="140" cy="88" r="3"/><circle cx="180" cy="88" r="3"/>
  </g>
  <text x="244" y="36" font-family="ui-monospace, monospace" font-size="13" fill="#be185d" font-weight="700">1st</text>
  <text x="40" y="172" font-family="ui-monospace, monospace" font-size="11" fill="#9f1239" opacity="0.7">SNP · breed</text>
</svg>
