<svg xmlns="http://www.w3.org/2000/svg" viewBox="0 0 320 200" width="320" height="200" role="img" aria-label="LG 온라인 판매량 예측">
  <defs>
    <linearGradient id="lg-bg" x1="0" y1="0" x2="1" y2="1">
      <stop offset="0" stop-color="#fee2e2"/>
      <stop offset="1" stop-color="#fecaca"/>
    </linearGradient>
  </defs>
  <rect width="320" height="200" rx="14" fill="url(#lg-bg)"/>
  <g transform="translate(60 60)">
    <rect x="0" y="0" width="200" height="20" rx="4" fill="#ffffff" stroke="#b91c1c" stroke-width="2"/>
    <text x="10" y="14" font-family="ui-monospace, monospace" font-size="11" fill="#b91c1c">cart · qty: 24</text>
    <rect x="0" y="28" width="36" height="60" rx="4" fill="#dc2626"/>
    <rect x="46" y="40" width="36" height="48" rx="4" fill="#ef4444"/>
    <rect x="92" y="20" width="36" height="68" rx="4" fill="#dc2626"/>
    <rect x="138" y="48" width="36" height="40" rx="4" fill="#ef4444"/>
  </g>
  <g stroke="#7f1d1d" stroke-width="2" fill="none" stroke-linecap="round">
    <path d="M40 170 L80 158 L120 162 L160 140 L200 148 L240 130 L280 138"/>
  </g>
  <g fill="#7f1d1d">
    <circle cx="80" cy="158" r="3"/>
    <circle cx="160" cy="140" r="3"/>
    <circle cx="240" cy="130" r="3"/>
  </g>
</svg>
