<svg xmlns="http://www.w3.org/2000/svg" viewBox="0 0 320 200" width="320" height="200" role="img" aria-label="AI 활용 아이디어 공모전">
  <defs>
    <linearGradient id="mg-bg" x1="0" y1="0" x2="1" y2="1">
      <stop offset="0" stop-color="#cffafe"/>
      <stop offset="1" stop-color="#a5f3fc"/>
    </linearGradient>
  </defs>
  <rect width="320" height="200" rx="14" fill="url(#mg-bg)"/>
  <g transform="translate(132 36)">
    <path d="M28 0 Q56 0 56 30 Q56 50 40 60 L40 78 L16 78 L16 60 Q0 50 0 30 Q0 0 28 0 Z" fill="#fef3c7" stroke="#0e7490" stroke-width="2.5"/>
    <line x1="20" y1="86" x2="36" y2="86" stroke="#0e7490" stroke-width="2.5" stroke-linecap="round"/>
    <line x1="22" y1="94" x2="34" y2="94" stroke="#0e7490" stroke-width="2.5" stroke-linecap="round"/>
    <g stroke="#0891b2" stroke-width="2" stroke-linecap="round">
      <line x1="28" y1="-10" x2="28" y2="-18"/>
      <line x1="-10" y1="28" x2="-18" y2="28"/>
      <line x1="66" y1="28" x2="74" y2="28"/>
      <line x1="-2" y1="-2" x2="-8" y2="-8"/>
      <line x1="58" y1="-2" x2="64" y2="-8"/>
    </g>
  </g>
  <text x="40" y="172" font-family="ui-monospace, monospace" font-size="11" fill="#155e75" opacity="0.7">AI for good · ideation</text>
</svg>
