<svg xmlns="http://www.w3.org/2000/svg" viewBox="0 0 320 200" width="320" height="200" role="img" aria-label="해양 법령 도메인 RAG">
  <defs>
    <linearGradient id="mr-bg" x1="0" y1="0" x2="1" y2="1">
      <stop offset="0" stop-color="#ccfbf1"/>
      <stop offset="1" stop-color="#cffafe"/>
    </linearGradient>
  </defs>
  <rect width="320" height="200" rx="14" fill="url(#mr-bg)"/>
  <g transform="translate(60 50)">
    <rect x="0" y="0" width="90" height="110" rx="6" fill="#ffffff" stroke="#14b8a6" stroke-width="2"/>
    <path d="M10 22 H80 M10 38 H80 M10 54 H60 M10 70 H80 M10 86 H50" stroke="#5eead4" stroke-width="3" stroke-linecap="round"/>
    <rect x="6" y="6" width="20" height="6" rx="2" fill="#14b8a6"/>
  </g>
  <g transform="translate(170 60)" stroke="#0ea5e9" stroke-width="2" fill="none">
    <circle cx="20" cy="20" r="14" fill="#fff"/>
    <circle cx="60" cy="14" r="10" fill="#fff"/>
    <circle cx="70" cy="60" r="12" fill="#fff"/>
    <circle cx="20" cy="70" r="11" fill="#fff"/>
    <line x1="20" y1="20" x2="60" y2="14"/>
    <line x1="60" y1="14" x2="70" y2="60"/>
    <line x1="70" y1="60" x2="20" y2="70"/>
    <line x1="20" y1="70" x2="20" y2="20"/>
    <line x1="20" y1="20" x2="70" y2="60" stroke-dasharray="3 3"/>
  </g>
  <g transform="translate(170 60)" fill="#14b8a6">
    <circle cx="20" cy="20" r="3"/>
    <circle cx="60" cy="14" r="3"/>
    <circle cx="70" cy="60" r="3"/>
    <circle cx="20" cy="70" r="3"/>
  </g>
  <text x="22" y="180" font-family="ui-monospace, monospace" font-size="11" fill="#0f766e" opacity="0.65">12 법령 · 394 조문</text>
</svg>
