<svg xmlns="http://www.w3.org/2000/svg" viewBox="0 0 320 200" width="320" height="200" role="img" aria-label="해양사고 위험 예측 시스템">
  <defs>
    <linearGradient id="ma-bg" x1="0" y1="0" x2="0" y2="1">
      <stop offset="0" stop-color="#e0f2fe"/>
      <stop offset="1" stop-color="#dbeafe"/>
    </linearGradient>
    <linearGradient id="ma-wave" x1="0" y1="0" x2="0" y2="1">
      <stop offset="0" stop-color="#0ea5e9" stop-opacity="0.85"/>
      <stop offset="1" stop-color="#38bdf8" stop-opacity="0.55"/>
    </linearGradient>
  </defs>
  <rect width="320" height="200" rx="14" fill="url(#ma-bg)"/>
  <g stroke="#bae6fd" stroke-width="1" opacity="0.7">
    <path d="M0 60 H320 M0 100 H320 M0 140 H320 M0 180 H320"/>
    <path d="M40 0 V200 M80 0 V200 M120 0 V200 M160 0 V200 M200 0 V200 M240 0 V200 M280 0 V200"/>
  </g>
  <path d="M0 130 C40 110 80 150 120 130 C160 110 200 150 240 130 C280 110 320 150 320 130 L320 200 L0 200 Z" fill="url(#ma-wave)"/>
  <path d="M0 152 C40 132 80 172 120 152 C160 132 200 172 240 152 C280 132 320 172 320 152 L320 200 L0 200 Z" fill="#0284c7" opacity="0.45"/>
  <g transform="translate(150 70)">
    <circle r="22" fill="#fff"/>
    <circle r="22" fill="none" stroke="#0ea5e9" stroke-width="2"/>
    <path d="M-10 -2 L-2 -2 L-2 -8 L4 4 L-4 4 L-4 10 L-12 -2 Z" fill="#0ea5e9"/>
  </g>
  <circle cx="60" cy="50" r="5" fill="#f59e0b" opacity="0.8"/>
  <circle cx="260" cy="40" r="4" fill="#ef4444" opacity="0.7"/>
  <circle cx="220" cy="80" r="3" fill="#f59e0b" opacity="0.7"/>
</svg>
