<svg xmlns="http://www.w3.org/2000/svg" viewBox="0 0 320 200" width="320" height="200" role="img" aria-label="머신러닝 팀프로젝트 Kaggle">
  <defs>
    <linearGradient id="ml-bg" x1="0" y1="0" x2="1" y2="1">
      <stop offset="0" stop-color="#e0f2fe"/>
      <stop offset="1" stop-color="#bae6fd"/>
    </linearGradient>
  </defs>
  <rect width="320" height="200" rx="14" fill="url(#ml-bg)"/>
  <g transform="translate(40 40)" font-family="ui-monospace, monospace" font-size="13">
    <rect x="0" y="0" width="240" height="120" rx="8" fill="#ffffff" stroke="#0284c7" stroke-width="2"/>
    <line x1="80" y1="0" x2="80" y2="120" stroke="#bae6fd"/>
    <line x1="160" y1="0" x2="160" y2="120" stroke="#bae6fd"/>
    <line x1="0" y1="30" x2="240" y2="30" stroke="#bae6fd"/>
    <line x1="0" y1="60" x2="240" y2="60" stroke="#bae6fd"/>
    <line x1="0" y1="90" x2="240" y2="90" stroke="#bae6fd"/>
    <text x="12" y="20" fill="#0c4a6e">id</text>
    <text x="92" y="20" fill="#0c4a6e">x</text>
    <text x="172" y="20" fill="#0c4a6e">y</text>
    <text x="12" y="50" fill="#0369a1">001</text>
    <text x="92" y="50" fill="#0369a1">2.4</text>
    <text x="172" y="50" fill="#0369a1">A</text>
    <text x="12" y="80" fill="#0369a1">002</text>
    <text x="92" y="80" fill="#0369a1">5.1</text>
    <text x="172" y="80" fill="#0369a1">B</text>
    <text x="12" y="110" fill="#0369a1">003</text>
    <text x="92" y="110" fill="#0369a1">3.8</text>
    <text x="172" y="110" fill="#0369a1">A</text>
  </g>
  <text x="40" y="180" font-family="ui-monospace, monospace" font-size="11" fill="#075985" opacity="0.7">kml2022s · kaggle</text>
</svg>
