<svg xmlns="http://www.w3.org/2000/svg" viewBox="0 0 320 200" width="320" height="200" role="img" aria-label="전력사용량 예측">
  <defs>
    <linearGradient id="pc-bg" x1="0" y1="0" x2="1" y2="1">
      <stop offset="0" stop-color="#fef9c3"/>
      <stop offset="1" stop-color="#fde68a"/>
    </linearGradient>
  </defs>
  <rect width="320" height="200" rx="14" fill="url(#pc-bg)"/>
  <g transform="translate(132 38)" fill="#ca8a04">
    <path d="M28 0 L8 60 L24 60 L18 100 L46 36 L30 36 L36 0 Z" stroke="#854d0e" stroke-width="2" stroke-linejoin="round"/>
  </g>
  <g stroke="#a16207" stroke-width="2" fill="none" stroke-linecap="round">
    <path d="M30 160 Q60 130 90 145 T150 130 T210 150 T280 125"/>
    <path d="M30 160 L30 170 M60 152 L60 170 M90 148 L90 170 M120 140 L120 170 M150 134 L150 170 M180 142 L180 170 M210 150 L210 170 M240 142 L240 170 M270 130 L270 170"/>
  </g>
  <text x="40" y="34" font-family="ui-monospace, monospace" font-size="11" fill="#854d0e" opacity="0.7">kWh forecast</text>
</svg>
