<svg xmlns="http://www.w3.org/2000/svg" viewBox="0 0 320 200" width="320" height="200" role="img" aria-label="수요기관 자체입찰 모니터링">
  <defs>
    <linearGradient id="pb-bg" x1="0" y1="0" x2="1" y2="1">
      <stop offset="0" stop-color="#e0e7ff"/>
      <stop offset="1" stop-color="#ede9fe"/>
    </linearGradient>
  </defs>
  <rect width="320" height="200" rx="14" fill="url(#pb-bg)"/>
  <g transform="translate(36 30)">
    <rect x="0" y="0" width="188" height="140" rx="10" fill="#ffffff" stroke="#6366f1" stroke-width="2"/>
    <rect x="0" y="0" width="188" height="26" rx="10" fill="#6366f1"/>
    <rect x="0" y="16" width="188" height="10" fill="#6366f1"/>
    <text x="12" y="18" font-family="ui-monospace, monospace" font-size="11" fill="#ffffff">bid monitor</text>
    <g font-family="ui-monospace, monospace" font-size="11" fill="#3730a3">
      <rect x="12" y="38" width="10" height="10" rx="2" fill="#6366f1"/>
      <text x="30" y="47">bid_001 · ok</text>
      <rect x="12" y="62" width="10" height="10" rx="2" fill="#6366f1"/>
      <text x="30" y="71">bid_002 · ok</text>
      <rect x="12" y="86" width="10" height="10" rx="2" fill="none" stroke="#6366f1" stroke-width="2"/>
      <text x="30" y="95" fill="#6366f1">bid_003 · review</text>
      <rect x="12" y="110" width="10" height="10" rx="2" fill="#6366f1"/>
      <text x="30" y="119">bid_004 · ok</text>
    </g>
  </g>
  <g transform="translate(216 96)">
    <circle cx="28" cy="28" r="24" fill="#ffffff" stroke="#6366f1" stroke-width="3"/>
    <line x1="46" y1="46" x2="66" y2="66" stroke="#6366f1" stroke-width="6" stroke-linecap="round"/>
    <path d="M18 30 L26 38 L40 20" fill="none" stroke="#6366f1" stroke-width="3" stroke-linecap="round" stroke-linejoin="round"/>
  </g>
  <text x="242" y="42" font-family="ui-monospace, monospace" font-size="10" fill="#4338ca" opacity="0.7">2026</text>
</svg>
