<svg xmlns="http://www.w3.org/2000/svg" viewBox="0 0 320 200" width="320" height="200" role="img" aria-label="HD현대 선박 대기시간 예측">
  <defs>
    <linearGradient id="sw-bg" x1="0" y1="0" x2="0" y2="1">
      <stop offset="0" stop-color="#dbeafe"/>
      <stop offset="1" stop-color="#bfdbfe"/>
    </linearGradient>
  </defs>
  <rect width="320" height="200" rx="14" fill="url(#sw-bg)"/>
  <g transform="translate(70 60)">
    <path d="M0 60 L20 90 L160 90 L180 60 Z" fill="#1e3a8a"/>
    <rect x="40" y="36" width="100" height="24" fill="#3b82f6"/>
    <rect x="60" y="14" width="60" height="22" fill="#1d4ed8"/>
    <rect x="74" y="0" width="6" height="14" fill="#1e3a8a"/>
    <rect x="100" y="0" width="6" height="14" fill="#1e3a8a"/>
    <circle cx="60" cy="48" r="4" fill="#fff"/>
    <circle cx="84" cy="48" r="4" fill="#fff"/>
    <circle cx="108" cy="48" r="4" fill="#fff"/>
    <circle cx="132" cy="48" r="4" fill="#fff"/>
  </g>
  <g stroke="#1e3a8a" stroke-width="2" fill="none" opacity="0.5">
    <path d="M0 156 Q40 152 80 156 T160 156 T240 156 T320 156"/>
    <path d="M0 168 Q40 164 80 168 T160 168 T240 168 T320 168"/>
  </g>
  <g transform="translate(232 30)">
    <circle cx="14" cy="14" r="14" fill="#fff" stroke="#1e3a8a" stroke-width="2"/>
    <line x1="14" y1="14" x2="14" y2="6" stroke="#1e3a8a" stroke-width="2" stroke-linecap="round"/>
    <line x1="14" y1="14" x2="20" y2="18" stroke="#1e3a8a" stroke-width="2" stroke-linecap="round"/>
  </g>
</svg>
