<svg xmlns="http://www.w3.org/2000/svg" viewBox="0 0 320 200" width="320" height="200" role="img" aria-label="스마트농업 AI">
  <defs>
    <linearGradient id="sf-bg" x1="0" y1="0" x2="0" y2="1">
      <stop offset="0" stop-color="#dcfce7"/>
      <stop offset="1" stop-color="#bbf7d0"/>
    </linearGradient>
  </defs>
  <rect width="320" height="200" rx="14" fill="url(#sf-bg)"/>
  <g transform="translate(120 30)">
    <path d="M40 100 L40 50" stroke="#15803d" stroke-width="3" stroke-linecap="round"/>
    <path d="M40 70 Q15 70 10 50 Q30 50 40 70 Z" fill="#22c55e"/>
    <path d="M40 60 Q70 55 75 35 Q55 35 40 55 Z" fill="#16a34a"/>
    <path d="M40 90 Q15 90 8 78 Q30 75 40 90 Z" fill="#15803d"/>
    <ellipse cx="40" cy="110" rx="34" ry="6" fill="#16a34a" opacity="0.4"/>
  </g>
  <g transform="translate(40 50)" stroke="#15803d" stroke-width="2" fill="none">
    <rect x="0" y="0" width="60" height="40" rx="4" fill="#ffffff"/>
    <line x1="6" y1="10" x2="40" y2="10"/>
    <line x1="6" y1="20" x2="50" y2="20"/>
    <line x1="6" y1="30" x2="32" y2="30"/>
    <circle cx="52" cy="30" r="4" fill="#22c55e"/>
  </g>
  <text x="40" y="172" font-family="ui-monospace, monospace" font-size="11" fill="#14532d" opacity="0.7">yield · energy</text>
</svg>
