<svg xmlns="http://www.w3.org/2000/svg" viewBox="0 0 320 200" width="320" height="200" role="img" aria-label="치안 안전 분석">
  <defs>
    <linearGradient id="ts-bg" x1="0" y1="0" x2="1" y2="1">
      <stop offset="0" stop-color="#e0e7ff"/>
      <stop offset="1" stop-color="#c7d2fe"/>
    </linearGradient>
  </defs>
  <rect width="320" height="200" rx="14" fill="url(#ts-bg)"/>
  <g transform="translate(120 36)">
    <path d="M40 0 L80 12 L80 60 Q80 100 40 120 Q0 100 0 60 L0 12 Z" fill="#ffffff" stroke="#4338ca" stroke-width="2.5"/>
    <path d="M22 60 L36 74 L60 46" stroke="#4338ca" stroke-width="3.5" fill="none" stroke-linecap="round" stroke-linejoin="round"/>
  </g>
  <g transform="translate(36 144)" stroke="#4f46e5" stroke-width="2" fill="none" opacity="0.6">
    <path d="M0 12 L10 6 L20 14 L30 4 L40 10 L50 0"/>
    <path d="M200 12 L210 4 L220 14 L230 6 L240 10 L250 2"/>
  </g>
  <text x="40" y="172" font-family="ui-monospace, monospace" font-size="11" fill="#312e81" opacity="0.7">geo · safety analytics</text>
</svg>
